<?xml version="1.0" encoding="UTF-8"?>
<svg xmlns="http://www.w3.org/2000/svg" version="1.1" width="1024" height="1024" viewBox="0 0 1024 1024">
  <path d="M0 0 C337.92 0 675.84 0 1024 0 C1024 337.92 1024 675.84 1024 1024 C686.08 1024 348.16 1024 0 1024 C0 686.08 0 348.16 0 0 Z" fill="none"  transform="translate(0,0)"/>
  <path d="M0 0 C1.23363281 -0.01933594 1.23363281 -0.01933594 2.4921875 -0.0390625 C10.62537939 2.01233605 14.5469375 10.37393173 18.75 16.9375 C24.75022488 26.12042295 30.9381602 35.03065551 37.64648438 43.70654297 C39.2090016 45.7339968 40.75424783 47.77378419 42.296875 49.81640625 C52.69911413 63.56272405 63.55554812 76.9168327 74.75683594 90.01855469 C76.15016556 91.65454842 77.53279969 93.29912368 78.9140625 94.9453125 C86.22314443 103.61746297 93.91589848 111.88250454 101.73681641 120.09326172 C103.53214516 121.99650842 105.31412354 123.90892362 107.08740234 125.83251953 C116.02030393 135.50647614 125.2272835 144.88198072 134.54980469 154.18017578 C137.02136025 156.64631342 139.48744704 159.11783104 141.953125 161.58984375 C143.54915823 163.18521697 145.1455012 164.78028039 146.7421875 166.375 C147.46630829 167.10114502 148.19042908 167.82729004 148.93649292 168.57543945 C152.93668776 172.55749085 157.02628576 176.37362086 161.31074524 180.04885864 C164.44246666 182.76955463 167.42716285 185.6466473 170.4375 188.5 C175.61050199 193.36980356 180.89495846 197.98278905 186.44921875 202.41796875 C189.43997855 204.88479982 192.28840376 207.48492315 195.125 210.125 C200.59770666 215.20956519 206.29932076 219.94757058 212.125 224.625 C213.85556388 226.03995953 215.58470496 227.45666079 217.3125 228.875 C218.67568359 229.98875 218.67568359 229.98875 220.06640625 231.125 C221.67678924 232.44127729 223.28685388 233.75794981 224.89404297 235.078125 C233.09577621 241.81473141 241.38158913 248.40819302 249.84057617 254.81933594 C254.48111714 258.34336774 259.03837072 261.95322538 263.5625 265.625 C271.10308148 271.71886534 278.94158637 277.3638831 286.83544922 282.98828125 C289.82685654 285.12673238 292.80139496 287.28799279 295.77636719 289.44921875 C324.24953228 310.10695644 353.55310897 329.58005931 383.125 348.625 C383.9190625 349.13643555 384.713125 349.64787109 385.53125 350.17480469 C406.63829201 363.72728458 428.25967479 376.45609804 450.05517578 388.86474609 C453.04914013 390.58150154 456.02346462 392.3286583 458.99609375 394.08203125 C460.78855642 395.11806358 462.58149708 396.15326952 464.375 397.1875 C465.17848877 397.6712207 465.98197754 398.15494141 466.80981445 398.65332031 C471.15505817 401.1585373 471.15505817 401.1585373 476.0390625 401.25 C477.05742188 400.71375 478.07578125 400.1775 479.125 399.625 C479.83978516 399.2530249 480.55457031 398.8810498 481.29101562 398.49780273 C483.974047 397.06839281 486.61215983 395.57365639 489.25 394.0625 C490.24410889 393.4967627 491.23821777 392.93102539 492.26245117 392.34814453 C503.97500284 385.63537084 515.48811079 378.59447341 526.99609375 371.5390625 C529.68963342 369.89132912 532.38896312 368.2541728 535.09375 366.625 C571.04983626 344.93487525 605.94338699 321.00112154 640.125 296.625 C640.83446777 296.12033203 641.54393555 295.61566406 642.27490234 295.09570312 C653.90393235 286.81201052 665.29401208 278.2379353 676.61914062 269.54443359 C678.96474156 267.74775447 681.31664533 265.95981076 683.671875 264.17578125 C692.71743005 257.31568139 701.59244394 250.27539912 710.36474609 243.06933594 C711.94395584 241.77355163 713.52829286 240.48402202 715.11328125 239.1953125 C720.56396685 234.76219339 725.94758548 230.25665742 731.29638672 225.70166016 C734.6320888 222.86655975 738.0146879 220.10503904 741.4375 217.375 C746.96948372 212.88127715 752.13194839 208.02640723 757.29223633 203.11621094 C761.20811196 199.39319428 765.1934179 195.77888356 769.27416992 192.23730469 C773.38778358 188.65383224 777.37476942 184.92975839 781.38343811 181.23002625 C782.48944327 180.21073011 783.59667355 179.19276046 784.70555115 178.17658997 C795.70046864 168.09733806 806.28247627 157.62190273 816.81640625 147.06396484 C819.17440814 144.70145357 821.53568303 142.34232488 823.89890289 139.98504066 C826.19546239 137.6929898 828.48818146 135.39710505 830.78125 133.1015625 C831.61676392 132.26807281 832.45227783 131.43458313 833.31311035 130.57583618 C837.58192017 126.29003494 841.70675027 121.93785559 845.64376831 117.34434509 C847.93824945 114.68101773 850.34807301 112.1285364 852.75 109.5625 C858.84098476 103.00617793 864.70640052 96.26881485 870.53125 89.47607422 C872.06388174 87.69598632 873.607985 85.92665 875.15625 84.16015625 C881.6830863 76.68331933 887.79646503 68.96103551 893.7734375 61.0390625 C896.01641967 58.06905381 898.29185234 55.1293485 900.6015625 52.2109375 C910.02639736 40.29452473 918.70920008 27.97515196 926.984375 15.234375 C927.43200195 14.54947998 927.87962891 13.86458496 928.34082031 13.15893555 C929.16596634 11.89219521 929.98369134 10.62057258 930.79199219 9.34301758 C933.63105011 4.9755711 936.3911024 1.23580917 941.66015625 0.05859375 C942.49417969 0.05988281 943.32820312 0.06117188 944.1875 0.0625 C945.44240234 0.02962891 945.44240234 0.02962891 946.72265625 -0.00390625 C949.125 0.625 949.125 0.625 951.40625 2.65625 C953.5723533 6.39770116 953.68929514 9.48540838 953.5625 13.6875 C953.54856201 14.47479492 953.53462402 15.26208984 953.52026367 16.07324219 C951.4984988 82.90343736 916.30128911 149.06301164 876.125 200.625 C875.70831055 201.16495605 875.29162109 201.70491211 874.86230469 202.26123047 C866.05731394 213.67046903 856.86190388 224.69394094 847.171875 235.36328125 C845.2999031 237.43173875 843.4563661 239.52060914 841.625 241.625 C834.71659715 249.54255253 827.65567936 257.2469605 820.21484375 264.66796875 C819.40310196 265.48066727 818.59136017 266.29336578 817.75502014 267.13069153 C816.05462282 268.83176351 814.35298554 270.53159689 812.65014648 272.23022461 C810.06183345 274.81316516 807.47892439 277.40142341 804.89648438 279.99023438 C803.23209146 281.65396665 801.56738846 283.31738879 799.90234375 284.98046875 C799.14066391 285.74417282 798.37898407 286.50787689 797.59422302 287.29472351 C793.49576658 291.37551017 789.31742602 295.29878872 784.92538452 299.06272888 C781.79705066 301.77731878 778.81806296 304.65117253 775.8125 307.5 C770.63949801 312.36980356 765.35504154 316.98278905 759.80078125 321.41796875 C756.81002145 323.88479982 753.96159624 326.48492315 751.125 329.125 C745.65218109 334.20966948 739.94910941 338.94551325 734.125 343.625 C732.35325915 345.08223064 730.58243667 346.54057854 728.8125 348 C722.97058604 352.77749743 717.04443292 357.44189455 711.09521484 362.08447266 C709.0141181 363.71169948 706.93860575 365.34588808 704.86328125 366.98046875 C695.18734148 374.58048735 685.34615113 381.89658554 675.33105469 389.04248047 C673.20320017 390.56890289 671.08787592 392.11095876 668.9765625 393.66015625 C646.93704014 409.80137973 624.06860165 424.8087439 601.125 439.625 C600.16513184 440.24648926 599.20526367 440.86797852 598.21630859 441.50830078 C595.56543998 443.22111992 592.90918113 444.92512241 590.25 446.625 C589.47712646 447.12378662 588.70425293 447.62257324 587.90795898 448.13647461 C587.19841064 448.58643799 586.4888623 449.03640137 585.7578125 449.5 C585.14824707 449.88929688 584.53868164 450.27859375 583.91064453 450.6796875 C582.00205658 451.69008571 580.23320929 452.1883783 578.125 452.625 C578.125 453.285 578.125 453.945 578.125 454.625 C579.13397339 454.78778442 579.13397339 454.78778442 580.16333008 454.95385742 C583.75036293 455.76671319 587.09346234 457.0326641 590.51171875 458.36328125 C592.00517133 458.9359689 593.49866265 459.50855554 594.9921875 460.08105469 C595.7769043 460.38346069 596.56162109 460.6858667 597.37011719 460.99743652 C616.16617422 468.23196447 635.09577089 475.03247891 654.125 481.625 C654.83015747 481.86943848 655.53531494 482.11387695 656.26184082 482.36572266 C665.21108781 485.46714241 674.16529169 488.55392446 683.125 491.625 C683.29950684 491.08407715 683.47401367 490.5431543 683.65380859 489.98583984 C694.30938983 457.43216575 708.56810657 423.25490463 739.97265625 406.06640625 C752.60932126 399.93898739 764.55890131 397.89024158 778.1328125 401.5859375 C788.8109491 405.29401104 796.41835495 411.88029529 801.5 421.875 C806.21159886 431.80211204 807.04679362 443.99741653 803.6875 454.625 C800.04396865 463.01029023 793.43716098 469.87637838 785.125 473.625 C778.67016632 475.6258614 770.85234333 475.84965456 764.6875 472.9375 C761.32768743 470.96650348 758.64257885 468.61462489 756.125 465.625 C756.125 464.965 756.125 464.305 756.125 463.625 C752.22764812 467.21681035 749.54132212 470.89671294 747 475.5625 C746.49919922 476.45485352 746.49919922 476.45485352 745.98828125 477.36523438 C743.92541124 481.06626586 741.99407521 484.82299918 740.125 488.625 C740.95 488.46 741.775 488.295 742.625 488.125 C749.59265849 487.12962022 754.5311289 487.43745295 761.046875 489.96875 C763.3975082 490.82575425 763.3975082 490.82575425 767.125 490.625 C767.970625 490.150625 768.81625 489.67625 769.6875 489.1875 C775.25037305 486.65892134 780.97459041 485.68208021 786.91796875 487.4609375 C788.60997516 488.1657319 790.28504411 488.91365406 791.93359375 489.71484375 C794.34519341 490.88070875 794.34519341 490.88070875 798.125 490.625 C800.15864534 489.81188272 800.15864534 489.81188272 802.125 488.6875 C808.56049234 485.18065945 814.87321967 484.93435425 822.125 485.625 C825.32458325 486.65110542 828.16308182 488.05914517 831.125 489.625 C832.115 489.955 833.105 490.285 834.125 490.625 C835.98058779 489.55364203 835.98058779 489.55364203 837.8125 487.9375 C848.22644964 479.73199306 858.97799268 477.50252339 872.125 478.625 C886.12176264 481.42117506 897.78527173 488.52317925 905.875 500.375 C914.00512794 514.24565747 914.76443548 529.88242685 911.09375 545.2109375 C907.19991427 558.93356826 900.01145005 571.33170584 888.125 579.625 C874.83114649 586.87766127 861.59757744 589.88611269 846.63671875 586.9375 C833.34256576 582.79924226 822.97608358 574.96245115 815.125 563.625 C814.38975098 563.77122803 813.65450195 563.91745605 812.89697266 564.06811523 C809.51558686 564.73775181 806.13282369 565.40016721 802.75 566.0625 C801.59371094 566.29259766 800.43742188 566.52269531 799.24609375 566.75976562 C770.39066656 572.38412855 741.4608242 569.7679235 713.125 562.625 C712.97913452 563.48375732 712.97913452 563.48375732 712.83032227 564.35986328 C707.75013637 592.04948658 695.90337017 622.21428407 676.125 642.625 C675.20654297 643.67107422 675.20654297 643.67107422 674.26953125 644.73828125 C664.03470422 655.97695059 649.91273954 661.46846706 635.01953125 662.9296875 C620.70683851 663.29305629 606.56735448 658.54523676 596.125 648.625 C588.58255794 640.99276696 585.09396572 631.63294407 584.625 620.9375 C585.0070638 612.45814863 588.32048503 605.43695413 594.15234375 599.3203125 C599.88228329 594.39596842 605.95235115 592.93547998 613.41796875 593.23828125 C620.5381401 594.25544859 625.99206158 597.7487085 631.125 602.625 C631.455 603.285 631.785 603.945 632.125 604.625 C635.77648909 603.10975623 637.92777097 600.98033683 640.5625 598.0625 C641.30371094 597.25683594 642.04492188 596.45117188 642.80859375 595.62109375 C645.72263404 591.85200622 647.91469734 587.83457722 650.125 583.625 C649.55620117 583.44549805 648.98740234 583.26599609 648.40136719 583.08105469 C608.6740679 570.51665086 569.31418003 557.38460742 531.125 540.625 C529.40748535 539.87331543 529.40748535 539.87331543 527.65527344 539.10644531 C511.34675156 531.94497401 495.24200474 524.41913406 479.23046875 516.62109375 C477.63984619 515.85128174 477.63984619 515.85128174 476.01708984 515.06591797 C474.22569567 514.17339658 472.4505861 513.24621213 470.70556641 512.26611328 C468.43027099 510.94530404 468.43027099 510.94530404 465.125 509.625 C462.72842004 510.30919375 462.72842004 510.30919375 460.125 511.625 C459.03453369 512.11653564 457.94406738 512.60807129 456.82055664 513.11450195 C455.55824744 513.69632518 454.29647816 514.27932077 453.03515625 514.86328125 C451.61305473 515.51852544 450.19084968 516.17354499 448.76855469 516.82836914 C448.02295288 517.17191437 447.27735107 517.51545959 446.50915527 517.86941528 C408.67961756 535.27301156 370.49437805 550.8864831 331.0625 564.3125 C330.064534 564.65270172 329.06656799 564.99290344 328.0383606 565.34341431 C297.79143193 575.625 297.79143193 575.625 292.125 575.625 C299.68867788 592.0360859 299.68867788 592.0360859 313.125 603.625 C313.4653125 602.75875 313.4653125 602.75875 313.8125 601.875 C316.26508214 597.67057347 320.34957122 594.95184234 324.84375 593.16796875 C332.13487523 591.43258107 340.82541358 591.24818572 347.3828125 595.23046875 C354.32657708 600.78859421 359.03296057 607.6702767 360.125 616.625 C360.89784532 628.02446841 356.70221022 637.89569001 349.4609375 646.6328125 C340.63761173 655.93960818 328.59750118 660.9362961 315.84765625 661.86328125 C298.49991025 662.21504985 284.04808624 656.85733462 271.3984375 644.85180664 C269.96321166 643.45381985 268.54372266 642.03973188 267.125 640.625 C266.40441406 639.92761719 265.68382812 639.23023438 264.94140625 638.51171875 C248.86182235 621.84977567 241.73009499 597.70764577 234.5 576.3125 C234.15694824 575.29857178 233.81389648 574.28464355 233.46044922 573.23999023 C233.15123535 572.29841064 232.84202148 571.35683105 232.5234375 570.38671875 C232.11617432 569.1486145 232.11617432 569.1486145 231.70068359 567.88549805 C231.125 565.625 231.125 565.625 231.125 561.625 C230.14144531 561.87894531 229.15789062 562.13289062 228.14453125 562.39453125 C194.95792117 570.74203357 160.2547185 571.94893275 127.125 562.625 C126.856875 563.20636719 126.58875 563.78773438 126.3125 564.38671875 C120.85430148 574.67470477 109.93443996 581.92898874 99.125 585.625 C84.40794921 589.81959917 71.81739403 587.19770369 58.3125 580.375 C44.32534963 572.38954757 37.04314478 559.56828302 32.81640625 544.3671875 C32.47416016 543.00980469 32.47416016 543.00980469 32.125 541.625 C31.93292969 541.00882813 31.74085937 540.39265625 31.54296875 539.7578125 C28.83259735 525.92731919 31.55072993 510.44917223 39.125 498.625 C44.43245446 491.54138751 50.16615614 486.48968898 58.125 482.625 C58.94355469 482.2125 59.76210937 481.8 60.60546875 481.375 C70.61789817 477.01254966 83.56024592 476.88229803 93.8515625 480.5703125 C99.0926315 483.00173626 103.97522385 486.05940215 108.640625 489.45703125 C109.46046875 489.84246094 110.2803125 490.22789062 111.125 490.625 C113.41133091 489.88440336 113.41133091 489.88440336 115.5625 488.3125 C121.96456135 484.75792265 127.95458257 484.6951912 135.125 485.625 C138.36505408 486.62587878 141.15870698 488.00916643 144.125 489.625 C146.52812844 490.98428009 146.52812844 490.98428009 149.125 491.625 C151.49636592 490.77727056 151.49636592 490.77727056 153.75 489.25 C159.27386097 486.24968861 163.91982716 485.56603338 170.125 486.625 C172.34047605 487.53681157 174.34165448 488.59604738 176.4140625 489.79296875 C178.22084537 490.84004855 178.22084537 490.84004855 180.875 490.5 C183.08489873 489.73071359 183.08489873 489.73071359 184.71875 488.578125 C188.39312413 487.12269109 191.96427246 487.41568912 195.875 487.5 C196.66777344 487.50902344 197.46054688 487.51804687 198.27734375 487.52734375 C200.22669281 487.55082988 202.17588575 487.58669863 204.125 487.625 C202.57818466 484.55433513 201.00982515 481.49517061 199.4375 478.4375 C199.00244141 477.57318359 198.56738281 476.70886719 198.11914062 475.81835938 C195.611751 470.97073943 193.25276196 467.21726851 189.125 463.625 C188.76148438 464.09550781 188.39796875 464.56601562 188.0234375 465.05078125 C183.36318949 470.82231917 178.58803598 473.97666305 171.1171875 474.86328125 C162.89410638 475.15154424 156.16239848 472.59098804 149.8125 467.375 C142.55265559 460.5111471 138.99165614 452.71448809 138.69311523 442.62524414 C138.65957845 429.93230151 141.55244828 420.07046175 150.67578125 410.78125 C159.58175222 402.94058656 170.2007896 398.87385178 182.1171875 399.28125 C201.4524015 401.49098874 218.10305522 411.68421184 230.4375 426.5 C241.12080712 440.81118016 259.125 467.15653738 259.125 485.625 C292.46309626 474.94276931 324.86665719 462.19278968 357.125 448.625 C353.73081864 445.83608417 350.26745019 443.32662065 346.58203125 440.9375 C345.51710449 440.24479004 344.45217773 439.55208008 343.35498047 438.83837891 C342.79727966 438.47721985 342.23957886 438.11606079 341.66497803 437.74395752 C338.72996524 435.8428308 335.80095678 433.93248692 332.87109375 432.0234375 C332.28890076 431.64440277 331.70670776 431.26536804 331.10687256 430.87484741 C301.62486265 411.67182422 272.6455893 391.60620113 244.87695312 369.98681641 C242.88502139 368.43846144 240.88786416 366.89697101 238.890625 365.35546875 C224.92103193 354.5559914 211.18558948 343.49601888 197.76220703 332.02392578 C196.02966674 330.54354166 194.29415339 329.06668642 192.55859375 327.58984375 C186.41026841 322.34870266 180.32283999 317.05527212 174.33984375 311.625 C172.35087498 309.82896471 170.33936806 308.06546697 168.3125 306.3125 C162.4665485 301.21184909 156.80028207 295.9136626 151.125 290.625 C150.44663086 289.99319824 149.76826172 289.36139648 149.06933594 288.71044922 C125.46121671 266.69164884 125.46121671 266.69164884 116.83203125 256.55078125 C114.84900205 254.31363389 112.75306614 252.22445348 110.625 250.125 C106.57666939 246.11749289 102.8185345 241.95835937 99.125 237.625 C98.26390625 236.62984375 97.4028125 235.6346875 96.515625 234.609375 C78.35305791 213.5989223 61.12009995 192.03616716 46.125 168.625 C45.60728027 167.8201416 45.08956055 167.0152832 44.55615234 166.18603516 C15.81782468 121.29276791 -8.52945436 67.70976302 -9.375 13.375 C-9.39353027 12.65449463 -9.41206055 11.93398926 -9.43115234 11.19165039 C-9.38859486 7.73990471 -8.90362625 5.67383302 -7.1484375 2.6796875 C-4.53212562 0.31511697 -3.47739981 -0.05416511 0 0 Z " fill="#020303" transform="translate(39.875,249.375)"/>
  <path d="M0 0 C0.97453125 0.37898438 1.9490625 0.75796875 2.953125 1.1484375 C19.21673648 8.36280875 29.33387261 21.98112202 36.1875 37.9375 C46.04796187 63.53761879 50.00741826 91.7878762 52 119 C52.80614746 118.85925049 53.61229492 118.71850098 54.44287109 118.57348633 C64.2267368 117.00505399 73.73533336 116.63781361 83.625 116.6875 C84.41713898 116.68998749 85.20927795 116.69247498 86.02542114 116.69503784 C119.05156282 116.85524378 147.6040073 124.43126808 172.0625 147.6875 C191.54081023 167.71449502 203.46132982 197.41669283 203.21484375 225.21484375 C202.67559919 234.71535243 199.46576012 246.31190995 192.1875 252.9375 C184.39718019 257.97829517 177.56270874 259.07489023 168.421875 257.30859375 C162.10176372 255.91295394 155.85910584 254.26074233 149.640625 252.46875 C131.37693688 247.22503935 113.93062298 245.75090154 95 245 C95.26554687 245.99257813 95.53109375 246.98515625 95.8046875 248.0078125 C103.9637869 279.07485592 102.25168201 308.1376324 90.70947266 337.99682617 C84.40091895 352.31251415 84.40091895 352.31251415 83.8359375 367.30859375 C85.07323828 370.00133215 86.48482541 372.45841681 88 375 C91.80852874 385.99485977 88.51217791 398.67430347 83.6796875 408.75390625 C76.9576288 420.78382005 66.45278472 428.93552276 53.25 432.9375 C51.83761222 433.30836283 50.42239205 433.66957707 49 434 C48.8865625 435.1034375 48.773125 436.206875 48.65625 437.34375 C48.2543716 440.58141825 47.63483612 443.67940554 46.84375 446.84375 C43.10145539 462.29025486 42.39254405 477.07210275 42.453125 492.90039062 C42.44017375 505.86648688 41.47526235 518.15874039 32 528 C27.28653857 532.59929454 22.29545568 536.80181144 17.125 540.875 C9.0505894 547.25823484 1.42369216 554.1113846 -5.2421875 561.96875 C-15.27344798 573.56042877 -27.40872196 583.56242556 -43 586 C-51.72001279 586.53471777 -59.41262578 585.85253185 -67.88671875 583.6796875 C-75.24020818 582.07428328 -81.95474968 582.61319557 -89.1875 584.5 C-104.07216923 588.25694776 -117.90034729 586.39623012 -131.19921875 578.796875 C-138.44778386 574.14647061 -144.69720286 568.67533102 -150.21875 562.0859375 C-157.83831627 553.16302436 -166.72543475 546.07594773 -176 539 C-185.89773841 531.41705525 -194.90536299 523.92428558 -197 511 C-197.10239517 508.41333236 -197.16117904 505.84855691 -197.17578125 503.26171875 C-197.19590772 501.71482774 -197.21727847 500.16795253 -197.23974609 498.62109375 C-197.25651398 497.41235596 -197.25651398 497.41235596 -197.27362061 496.17919922 C-197.51871702 480.47148192 -198.62095039 465.39026643 -202 450 C-202.15823242 449.27345215 -202.31646484 448.5469043 -202.47949219 447.79833984 C-203.10860908 444.95230238 -203.76756783 442.11825658 -204.484375 439.29296875 C-205 437 -205 437 -205 434 C-206.11375 433.938125 -207.2275 433.87625 -208.375 433.8125 C-218.40225793 432.48847827 -226.31862145 426.26989376 -233 419 C-238.95386074 410.90274939 -242.57142633 402.58688483 -242.4375 392.5 C-242.43266602 391.34781982 -242.43266602 391.34781982 -242.42773438 390.17236328 C-242.23642995 382.12273481 -240.33889126 374.66404547 -238 367 C-238.55042969 367.144375 -239.10085938 367.28875 -239.66796875 367.4375 C-265.87688404 373.28879272 -296.27748156 367.05427559 -319 353 C-334.01902563 342.5181646 -339.74121834 326.38205799 -343 309 C-347.84265253 276.70746769 -338.82730018 243.15138652 -323 215 C-322.33371039 213.77133451 -321.6683525 212.54216333 -321.00390625 211.3125 C-316.8780695 203.7829988 -312.25917185 196.78342319 -307 190 C-306.35933594 189.154375 -305.71867187 188.30875 -305.05859375 187.4375 C-294.44891766 173.90865307 -281.87519796 162.10814117 -268 152 C-267.05036377 151.30704834 -267.05036377 151.30704834 -266.08154297 150.60009766 C-261.10876556 146.98724792 -256.11481929 143.40987953 -251 140 C-250.26598986 137.59721789 -249.7143954 135.33407324 -249.23828125 132.87890625 C-248.92530402 131.38417661 -248.61223025 129.88946718 -248.29907227 128.39477539 C-248.13867462 127.60668488 -247.97827698 126.81859436 -247.8130188 126.00662231 C-240.37182935 89.6699708 -230.64462249 44.46332266 -197.75 22.25 C-184.4211708 14.2927618 -169.94745657 12.84086173 -154.8125 16 C-143.27989664 19.43078843 -132.70114885 25.92983875 -122.671875 32.43359375 C-119.51561483 34.36639507 -119.51561483 34.36639507 -116 35 C-107.48185314 31.89657325 -100.5913416 27.13941915 -93.765625 21.26171875 C-88.86541188 17.25434107 -83.49341488 14.12082242 -78 11 C-76.94425781 10.3915625 -75.88851563 9.783125 -74.80078125 9.15625 C-53.85752584 -2.14567245 -22.862683 -9.07579234 0 0 Z " fill="#010303" transform="translate(589,32)"/>
  <path d="M0 0 C4.03576144 3.67507745 6.9910146 8.00621614 10.125 12.4375 C15.59486466 20.08948336 21.20484833 27.58995734 27 35 C27.8805919 36.13902648 28.76078993 37.27835756 29.640625 38.41796875 C34.80885825 45.08524954 40.13350971 51.58046684 45.6574707 57.95629883 C48.69327497 61.46165398 51.65441272 65.01192186 54.5625 68.625 C58.66652067 73.68240478 63.02313989 78.46132012 67.44921875 83.234375 C69.48401883 85.44055947 71.47646238 87.66632261 73.4375 89.9375 C78.48755065 95.74982245 83.75428229 101.36500333 89 107 C89.59989746 107.64646484 90.19979492 108.29292969 90.81787109 108.95898438 C98.5789211 117.31424921 106.44985472 125.54730289 114.5 133.625 C115.22912598 134.35871826 115.95825195 135.09243652 116.70947266 135.84838867 C120.76609218 139.89340725 124.9289179 143.74550518 129.26757812 147.48583984 C131.27308766 149.23868231 133.15022745 151.08416415 135 153 C138.08583999 156.12754053 141.281243 159.03382257 144.61328125 161.89453125 C147.12007521 164.1059256 149.5574491 166.3797846 151.99414062 168.66772461 C157.59753636 173.92880763 163.28530733 178.9512871 169.2890625 183.7578125 C172.28905961 186.23907812 175.15130287 188.84888189 178 191.5 C182.57924849 195.75535938 187.29286588 199.77323156 192.1640625 203.6953125 C195.25588048 206.20794695 198.28427573 208.78658385 201.3125 211.375 C206.90155823 216.13445184 212.63010431 220.690008 218.421875 225.19921875 C221.40874334 227.52731488 224.35956948 229.89680064 227.30371094 232.27856445 C234.46891393 238.06739535 241.7787613 243.63977105 249.16552734 249.14257812 C254.50087256 253.11805233 259.79848512 257.13779554 265.07299805 261.19360352 C273.21871902 267.45091385 281.43139408 273.52635336 289.95117188 279.26416016 C293.10977546 281.39337883 296.25115984 283.54589024 299.38470459 285.71176147 C309.26794483 292.54085132 319.24940345 299.21940342 329.25 305.875 C330.1098349 306.44748474 330.9696698 307.01996948 331.8555603 307.60980225 C361.40134151 327.27724982 391.36648287 346.06101237 422 364 C423.64814697 364.96534668 423.64814697 364.96534668 425.32958984 365.95019531 C449.48963793 380.06882374 474.09936172 393.23890248 499 406 C499.93489258 406.48178711 500.86978516 406.96357422 501.83300781 407.45996094 C546.14645695 430.25574401 592.65277097 448.00835212 639.5625 464.625 C640.2740625 464.87743469 640.985625 465.12986938 641.71875 465.38995361 C649.42409361 468.11840536 657.13437348 470.76535414 665 473 C657.58228962 481.40673843 645.03585743 488.48387979 633.78417969 489.20654297 C629.63027303 488.97982006 626.14741761 487.98381222 622.27734375 486.578125 C621.54761353 486.32234177 620.8178833 486.06655853 620.06604004 485.80302429 C617.68541584 484.96398402 615.31135379 484.10799187 612.9375 483.25 C611.27162138 482.65552443 609.60568644 482.06120668 607.93969727 481.46704102 C575.23244663 469.73643757 543.27992993 456.05689764 511.82226562 441.31933594 C509.30750537 440.14375078 506.78808642 438.97925185 504.265625 437.8203125 C494.60710101 433.36481537 485.18743636 428.52212641 475.81152344 423.50146484 C472.68403886 421.83126424 469.54918207 420.17535352 466.4140625 418.51953125 C452.00043588 410.88265494 437.82288151 402.92267427 423.77587891 394.62597656 C420.29842741 392.58905247 416.79401571 390.60252953 413.28515625 388.62036133 C392.70569395 376.98892217 372.60974749 364.53180598 352.72949219 351.74804688 C349.95473257 349.97100941 347.17012129 348.2104039 344.3828125 346.453125 C318.34171003 329.98956134 292.90788627 312.56259274 267.68457031 294.87695312 C264.80338962 292.86253723 261.91432747 290.85982992 259.0234375 288.859375 C250.66411539 283.07106221 242.32055975 277.29089744 234.1875 271.1875 C226.1735952 265.18471934 217.60757937 260.09750119 209 255 C212.75424981 260.00566642 217.14577527 264.33782485 221.5625 268.75 C222.37170898 269.55840332 223.18091797 270.36680664 224.01464844 271.19970703 C228.92985652 276.06480004 233.87947083 280.63416331 239.33203125 284.890625 C241.87029586 286.89745207 244.29597715 288.98745986 246.72460938 291.12329102 C256.06104182 299.30863822 265.99164705 306.66288093 276 314 C276.77424316 314.56895996 277.54848633 315.13791992 278.34619141 315.72412109 C289.72611228 324.0697232 301.29616649 332.11640329 313 340 C313.87839539 340.59225372 313.87839539 340.59225372 314.77453613 341.19647217 C332.98022359 353.46842373 351.26801062 365.541458 370 377 C371.09586426 377.67337402 372.19172852 378.34674805 373.32080078 379.04052734 C390.04872464 389.31800795 406.93083872 399.29708166 424 409 C424.99467285 409.56750977 425.9893457 410.13501953 427.01416016 410.71972656 C445.45674508 421.2263379 464.17863803 431.19227326 483 441 C484.08104004 441.56460937 485.16208008 442.12921875 486.27587891 442.7109375 C503.40748309 451.61135227 521.02284834 459.39879722 538.70751953 467.12060547 C542.5100265 468.78202181 546.30063993 470.46863478 550.08984375 472.16015625 C573.47645764 482.50777415 597.5756273 491.28061335 621.85546875 499.29296875 C622.62741074 499.54780533 623.39935272 499.80264191 624.19468689 500.06520081 C627.81980206 501.25758205 631.4490868 502.4343495 635.08666992 503.58813477 C635.73851761 503.79847855 636.3903653 504.00882233 637.06196594 504.22554016 C638.79947379 504.78611402 640.54000632 505.3372889 642.28076172 505.88769531 C645.70879984 507.28993465 647.35879622 508.66217976 648.94921875 511.98046875 C651.34145836 519.13187288 651.97638484 524.55474417 649.4765625 531.75 C649.06398193 532.94882813 649.06398193 532.94882813 648.64306641 534.171875 C648.43085449 534.77515625 648.21864258 535.3784375 648 536 C573.48963006 517.59000027 501.78053859 485.60011681 434.74853516 448.51318359 C431.9269202 446.95976651 429.09601501 445.42467697 426.26171875 443.89453125 C416.36099786 438.54571069 406.57716112 433.08377044 396.98144531 427.20556641 C394.76390057 425.85635055 392.53537883 424.52658341 390.3046875 423.19921875 C379.57006406 416.80836341 368.95515518 410.25468742 358.421875 403.53759766 C356.02775709 402.01762239 353.62464818 400.51296407 351.21875 399.01171875 C325.95685863 383.18481336 301.26357784 366.31547108 277 349 C276.22720703 348.44957031 275.45441406 347.89914062 274.65820312 347.33203125 C265.56814117 340.84655031 256.578112 334.26063494 247.77685547 327.38671875 C245.75139557 325.80598061 243.72155598 324.23096014 241.69140625 322.65625 C237.84126746 319.6687554 233.99700297 316.67380378 230.15429688 313.67675781 C228.1951895 312.1519222 226.23136103 310.63346064 224.265625 309.1171875 C217.45788046 303.84603187 210.87616627 298.37403494 204.40039062 292.69946289 C200.76247647 289.51343698 197.08105942 286.40717425 193.3125 283.375 C188.26975565 279.29277839 183.51203869 274.9523168 178.7578125 270.54296875 C176.59659452 268.55011761 174.41653031 266.60292215 172.1875 264.6875 C167.62357031 260.72956927 163.23485672 256.58483881 158.82958984 252.45239258 C155.85112166 249.65884282 152.8704844 246.87019095 149.84375 244.12890625 C142.92124078 237.85061057 136.24333713 231.34845863 129.625 224.75 C128.78042236 223.91001465 127.93584473 223.0700293 127.06567383 222.20458984 C122.75436258 217.88259963 118.59681028 213.49219603 114.61767578 208.86279297 C112.03773412 205.89192745 109.32446963 203.04930957 106.625 200.1875 C101.97360822 195.21681045 97.5484995 190.13778808 93.29296875 184.8203125 C91.16534262 182.2033686 88.98010895 179.655351 86.76391602 177.11401367 C44.33016872 128.37097514 6.89050825 65.34102653 0 0 Z " fill="#FDFDFD" transform="translate(48,281)"/>
  <path d="M0 0 C2.50315401 2.21697024 4.91398532 4.50274365 7.3125 6.83203125 C8.34310547 7.75242188 8.34310547 7.75242188 9.39453125 8.69140625 C24.05048493 22.21997888 34.6739315 45.35942197 35.65625 65.16015625 C35.70186331 67.02965267 35.73319158 68.899554 35.75 70.76953125 C35.76023193 71.64569092 35.77046387 72.52185059 35.78100586 73.42456055 C35.69384908 79.81504225 35.05174379 85.94922122 30.44921875 90.79296875 C21.94603035 94.92797444 11.74919019 91.01580915 3.3125 88.51953125 C-67.01212038 67.84193927 -147.32281107 92.87915749 -209.84082031 126.52929688 C-215.58718039 129.7016306 -221.27128525 132.97841743 -226.95214844 136.26611328 C-231.51395413 138.87762896 -236.13022439 141.38741299 -240.75 143.89453125 C-241.65057129 144.3836499 -242.55114258 144.87276855 -243.47900391 145.37670898 C-245.29631849 146.36321861 -247.11386447 147.34930207 -248.93164062 148.33496094 C-252.68880065 150.37596955 -256.43894659 152.42970842 -260.18945312 154.48291016 C-263.84607347 156.48210825 -267.50763378 158.47214529 -271.16992188 160.4609375 C-273.48728143 161.72299057 -275.79865644 162.99537707 -278.109375 164.26953125 C-302.16293989 177.41903821 -327.40883126 185.57029996 -353.8125 192.51953125 C-354.70061371 192.75395935 -355.58872742 192.98838745 -356.50375366 193.22991943 C-393.67815945 203.00157555 -393.67815945 203.00157555 -406.40234375 202.9296875 C-407.41748047 202.92646484 -408.43261719 202.92324219 -409.47851562 202.91992188 C-410.51685547 202.91154297 -411.55519531 202.90316406 -412.625 202.89453125 C-414.22311523 202.88776367 -414.22311523 202.88776367 -415.85351562 202.88085938 C-418.46490291 202.86914912 -421.07617124 202.85274849 -423.6875 202.83203125 C-420.415717 200.3127759 -417.08593378 198.40003435 -413.4375 196.45703125 C-393.30083355 185.14746895 -376.11357278 166.96392866 -361.1652832 149.55053711 C-359.10454441 147.15411544 -356.95701431 144.84094994 -354.8125 142.51953125 C-351.41216437 138.79928544 -348.16085607 135.00752372 -345 131.08203125 C-341.95818057 127.31316886 -338.81619506 123.84255345 -335.33984375 120.4765625 C-333.67904399 118.82361522 -332.15127609 117.10951487 -330.625 115.33203125 C-320.11873048 103.16936789 -309.02141706 91.10681469 -296.79296875 80.66015625 C-294.33022972 78.52182255 -291.95262657 76.30118526 -289.5625 74.08203125 C-283.71387791 68.74445381 -277.53482236 63.90364258 -271.27001953 59.06787109 C-269.16706659 57.42560824 -267.11842886 55.72011438 -265.0625 54.01953125 C-234.65196435 29.8092019 -199.44523539 11.29807649 -162.6875 -1.16796875 C-161.28951172 -1.64290771 -161.28951172 -1.64290771 -159.86328125 -2.12744141 C-113.7327043 -17.52842726 -41.87581255 -33.78063367 0 0 Z " fill="#046CB9" transform="translate(740.6875,182.16796875)"/>
  <path d="M0 0 C20.55269855 14.46554324 25.59260197 45.06656367 29.65625 68.125 C30.64440862 74.03534849 31.49200406 79.96293606 32.28515625 85.90234375 C32.47694458 87.33791626 32.47694458 87.33791626 32.67260742 88.80249023 C33.29774552 93.75476296 33.6726494 98.53634232 33.53515625 103.52734375 C32.4985083 103.72928345 32.4985083 103.72928345 31.44091797 103.93530273 C-19.55354041 114.01287864 -66.72159076 132.75141995 -109.46484375 162.52734375 C-110.03041992 162.91954102 -110.59599609 163.31173828 -111.17871094 163.71582031 C-119.79396844 169.71266717 -128.14464909 176.04129882 -136.45703125 182.44921875 C-137.12959961 182.95735107 -137.80216797 183.4654834 -138.49511719 183.98901367 C-140.46815769 185.4910933 -140.46815769 185.4910933 -142.22363281 187.12231445 C-148.40335688 192.46169599 -155.67379953 193.67539947 -163.46484375 195.21484375 C-164.90104119 195.51140858 -166.33715687 195.80836967 -167.77319336 196.10571289 C-193.25656683 201.29216655 -222.57058675 206.70873256 -247.46484375 196.52734375 C-247.82897287 186.84497693 -246.71402517 177.56634146 -245.27734375 168.02734375 C-245.04863167 166.47389389 -244.82003646 164.92042682 -244.59155273 163.36694336 C-242.51225278 149.36625119 -240.15813341 135.42359369 -237.46484375 121.52734375 C-237.24747559 120.39312988 -237.03010742 119.25891602 -236.80615234 118.09033203 C-232.0012873 93.36217597 -226.07687063 68.04579503 -214.46484375 45.52734375 C-213.60439453 43.84511719 -213.60439453 43.84511719 -212.7265625 42.12890625 C-205.94628742 29.75295587 -195.51663983 17.33990769 -181.625 12.9453125 C-163.08267185 9.35755642 -147.99305794 18.80894331 -133.2734375 28.6640625 C-126.27666885 33.16133361 -120.78881089 35.20083062 -112.46484375 33.52734375 C-104.54193969 30.88637573 -98.28662087 26.02688942 -91.88500977 20.84741211 C-68.23787908 1.728799 -29.4870678 -17.61747157 0 0 Z " fill="#046CB9" transform="translate(591.46484375,50.47265625)"/>
  <path d="M0 0 C5.27803585 12.31541699 6.54393747 25.09692555 6.4375 38.375 C6.43379395 39.05175781 6.43008789 39.72851562 6.42626953 40.42578125 C6.34275489 51.17639325 5.45503359 60.78973429 2 71 C1.68901367 71.96035156 1.37802734 72.92070312 1.05761719 73.91015625 C-0.63370915 79.11669437 -2.37054801 84.30737375 -4.1953125 89.46875 C-4.49453613 90.31888672 -4.79375977 91.16902344 -5.10205078 92.04492188 C-6 94 -6 94 -8 95 C-9.29932306 91.19006697 -10.58803903 87.37662482 -11.875 83.5625 C-12.42220703 81.95858398 -12.42220703 81.95858398 -12.98046875 80.32226562 C-16.37028824 70.24525677 -18.29392216 60.60713382 -19.5625 50.0625 C-19.81047356 48.01131361 -20.06161319 45.9605067 -20.31640625 43.91015625 C-20.47798218 42.56642944 -20.47798218 42.56642944 -20.64282227 41.19555664 C-20.89404285 38.96375475 -20.89404285 38.96375475 -22 37 C-23.485 37.495 -23.485 37.495 -25 38 C-33.66439693 60.03537984 -25.37698641 87.70022454 -16.52001953 108.47070312 C-13.49759053 115.24343758 -10.34145348 121.9494092 -7.10400391 128.62182617 C-4.37559906 134.49917946 -4.03231095 140.32278163 -5.68359375 146.59765625 C-9.66330406 157.28177479 -15.77402124 163.86619791 -26 169 C-31.55860851 171.01041888 -36.5457018 171.30587187 -42.375 171.25 C-43.17421875 171.25773438 -43.9734375 171.26546875 -44.796875 171.2734375 C-49.73471221 171.25745744 -54.16373631 170.63243075 -58.95507812 169.46289062 C-65.71781737 167.93206999 -73.15332637 167.98734286 -79.24609375 171.5234375 C-83.43579274 175.05062284 -86.282657 179.847971 -88 185 C-88.11953769 186.97654185 -88.17526196 188.95738456 -88.1875 190.9375 C-88.20167969 191.97777344 -88.21585938 193.01804687 -88.23046875 194.08984375 C-87.99963192 197.00464782 -87.34054581 198.46904951 -86 201 C-86.32432432 207.16216216 -86.32432432 207.16216216 -88.5625 209.9375 C-89.036875 210.288125 -89.51125 210.63875 -90 211 C-90.99 210.34 -91.98 209.68 -93 209 C-99.51650021 207.91391663 -103.61614214 209.44665381 -109 213 C-112 214 -112 214 -113.91796875 213.0859375 C-114.60503906 212.72757813 -115.29210937 212.36921875 -116 212 C-122.44740935 210.97508835 -126.73888281 212.27337532 -132 216 C-132.33 216.66 -132.66 217.32 -133 218 C-133.66 218 -134.32 218 -135 218 C-135 217.34 -135 216.68 -135 216 C-140.2728787 213.86234647 -144.23113299 212.60889037 -150 213 C-153.18362436 214.2999844 -153.18362436 214.2999844 -156 216 C-157.33333333 216.66666667 -158.66666667 217.33333333 -160 218 C-161.175625 217.0409375 -161.175625 217.0409375 -162.375 216.0625 C-167.30427724 212.18949646 -171.8770841 212.3523839 -178 213 C-180.70744644 214.0616528 -182.60815686 215.29913377 -185 217 C-186.0828125 216.071875 -186.0828125 216.071875 -187.1875 215.125 C-191.23771051 212.06484095 -193.93818012 210.72369544 -199 211.3125 C-201.32055122 211.66014812 -203.37497319 212.11606313 -205.625 212.8125 C-208 213 -208 213 -210.75 211.125 C-214.81775208 208.46531595 -218.16426726 207.74140467 -223 208 C-226.47096857 209.27253856 -226.47096857 209.27253856 -229 211 C-230.125 208.8125 -230.125 208.8125 -231 206 C-230.69449219 205.24589844 -230.38898438 204.49179687 -230.07421875 203.71484375 C-227.37770614 196.90002097 -228.18853276 187.78673796 -230.82421875 181.00390625 C-233.6180225 176.24237361 -237.74348976 172.95260811 -242.78515625 170.82421875 C-251.99354899 168.4633793 -262.17562076 169.81364546 -271.39453125 171.54296875 C-280.18169934 173.08434606 -287.82819234 171.42138239 -295.1875 166.375 C-300.01680213 162.5308755 -303.25908599 157.48182802 -306 152 C-306.76057818 143.17230571 -305.71385613 135.55211482 -303.00390625 127.1484375 C-302.16017456 124.50233735 -301.56869611 121.97264704 -301.0625 119.25 C-300 116 -300 116 -297.875 114.625 C-296.451875 114.315625 -296.451875 114.315625 -295 114 C-294.06220703 113.72929687 -294.06220703 113.72929687 -293.10546875 113.453125 C-288.98458279 112.28698519 -285.31436507 111.78428175 -281 112 C-280.78085937 112.70125 -280.56171875 113.4025 -280.3359375 114.125 C-277.13835332 123.69175592 -274.05408893 129.72512101 -264.875 134.4375 C-253.5852517 139.70892192 -241.6621584 139.19218722 -230 135 C-211.15839619 127.32538792 -199.79785839 115.53796204 -191.6875 97 C-190.06862161 89.93580339 -190.87389292 83.87610027 -193 77 C-177.76644002 68.03569129 -162.45515912 59.23178318 -146.99462891 50.6640625 C-144.14027547 49.07794861 -141.29424135 47.47777234 -138.44921875 45.875 C-98.65533123 23.6082594 -46.66745917 -0.80461136 0 0 Z " fill="#FDFDFD" transform="translate(668,280)"/>
  <path d="M0 0 C2.13603641 4.27207283 -0.49940522 10.50195578 -1.4375 15 C-1.63998352 15.97205383 -1.63998352 15.97205383 -1.84655762 16.96374512 C-14.77738205 78.46161347 -46.78898468 131.49598249 -87 179 C-87.53931152 179.6384082 -88.07862305 180.27681641 -88.63427734 180.93457031 C-94.96027874 188.40811494 -101.40199533 195.76486456 -108 203 C-108.8053418 203.89017822 -109.61068359 204.78035645 -110.44042969 205.69750977 C-118.51205636 214.56994497 -126.92738246 223.08104891 -135.41943359 231.54980469 C-137.76386677 233.88883481 -140.10284871 236.23322197 -142.44140625 238.578125 C-143.95540834 240.09146687 -145.4697203 241.60449881 -146.984375 243.1171875 C-147.67102234 243.80585907 -148.35766968 244.49453064 -149.06512451 245.20407104 C-152.97636756 249.09667324 -156.98575493 252.81609997 -161.1728363 256.41094971 C-164.30772749 259.13730628 -167.29769969 262.01745873 -170.3125 264.875 C-175.53601502 269.79167008 -180.8522919 274.44695705 -186.45703125 278.92578125 C-189.05011347 281.04087596 -191.527849 283.24518096 -194 285.5 C-198.25001973 289.3685219 -202.63684171 293.0204119 -207.10546875 296.6328125 C-209.61332635 298.68377296 -212.08061436 300.77396803 -214.53662109 302.88647461 C-221.34396032 308.73015576 -228.39474692 314.19965577 -235.546875 319.61328125 C-239.29198716 322.45011313 -242.99572187 325.33613858 -246.69091797 328.23754883 C-255.58056603 335.21150768 -264.63352936 341.91744712 -273.84130859 348.46484375 C-275.87276332 349.90951547 -277.89958408 351.36046872 -279.92578125 352.8125 C-306.3557464 371.67974343 -333.50481989 389.59868261 -361.05859375 406.77539062 C-362.78324308 407.86327305 -364.48703402 408.98406663 -366.1875 410.109375 C-367.05375 410.67140625 -367.92 411.2334375 -368.8125 411.8125 C-369.84310547 412.50279297 -369.84310547 412.50279297 -370.89453125 413.20703125 C-374.74742372 414.65812062 -378.28597424 413.29152635 -381.97607422 411.78491211 C-382.9920166 411.28741455 -384.00795898 410.78991699 -385.0546875 410.27734375 C-386.16328125 409.73916016 -387.271875 409.20097656 -388.4140625 408.64648438 C-389.55617188 408.08251953 -390.69828125 407.51855469 -391.875 406.9375 C-393.0403125 406.36966797 -394.205625 405.80183594 -395.40625 405.21679688 C-398.2742724 403.81804825 -401.13861866 402.41227112 -404 401 C-404 400.34 -404 399.68 -404 399 C-402.51318359 397.89355469 -402.51318359 397.89355469 -400.3984375 396.671875 C-399.60945068 396.20910156 -398.82046387 395.74632812 -398.00756836 395.26953125 C-397.1388208 394.76808594 -396.27007324 394.26664063 -395.375 393.75 C-385.1700123 387.74825294 -375.18496411 381.44409349 -365.22119141 375.05249023 C-362.77535028 373.49404046 -360.32473777 371.94474306 -357.86865234 370.40258789 C-346.35502723 363.17001455 -334.94508175 355.79052726 -323.59179688 348.30883789 C-320.74098338 346.43156251 -317.88619031 344.5604447 -315.03125 342.68945312 C-305.5477099 336.4555492 -296.20624337 330.10559893 -287.11083984 323.31665039 C-283.27571479 320.46062295 -279.3658538 317.72515114 -275.4375 315 C-267.73344533 309.60398188 -260.31359986 303.91161725 -253 298 C-252.05769531 297.24074219 -251.11539063 296.48148438 -250.14453125 295.69921875 C-247.4158701 293.48242766 -244.70705784 291.24310033 -242 289 C-241.00742187 288.19433594 -240.01484375 287.38867188 -238.9921875 286.55859375 C-232.5312497 281.26234874 -226.47395584 275.65464149 -220.5625 269.75 C-219.56923706 268.75794556 -219.56923706 268.75794556 -218.5559082 267.74584961 C-214.50475286 263.64850093 -210.70109485 259.41614409 -207 255 C-219.53638962 262.0248958 -231.04116293 270.29034376 -242.65405273 278.71606445 C-251.68245046 285.24826026 -260.84826471 291.58119747 -270.00927734 297.92529297 C-273.02707639 300.01878328 -276.03970012 302.11951694 -279.05078125 304.22265625 C-288.23384674 310.6348335 -297.42093074 317.03027711 -306.76953125 323.19921875 C-310.21731632 325.47449863 -313.64672649 327.77630175 -317.07421875 330.08203125 C-330.98556881 339.43021194 -345.03141717 348.50095518 -359.28955078 357.31542969 C-362.59360073 359.36892857 -365.8755763 361.45568983 -369.15600586 363.54663086 C-380.30263287 370.64731257 -391.60843552 377.48455716 -402.98779297 384.20556641 C-405.0984148 385.46290718 -407.19540535 386.7432821 -409.28173828 388.04052734 C-410.34505371 388.69102051 -411.40836914 389.34151367 -412.50390625 390.01171875 C-413.94165405 390.90636841 -413.94165405 390.90636841 -415.40844727 391.8190918 C-418 393 -418 393 -420.0637207 392.82299805 C-424.03183676 391.13638611 -427.81206355 389.13390532 -431.625 387.125 C-432.49640625 386.67769531 -433.3678125 386.23039062 -434.265625 385.76953125 C-435.09835937 385.33253906 -435.93109375 384.89554688 -436.7890625 384.4453125 C-437.54912598 384.04844238 -438.30918945 383.65157227 -439.09228516 383.24267578 C-441 382 -441 382 -443 379 C-442.24203125 378.54753906 -441.4840625 378.09507812 -440.703125 377.62890625 C-418.99401266 364.6475216 -397.39243893 351.49765345 -376 338 C-375.03271973 337.38995117 -374.06543945 336.77990234 -373.06884766 336.15136719 C-362.19946272 329.2874477 -351.39137088 322.3487339 -340.73144531 315.16357422 C-338.99963355 313.99975373 -337.26260515 312.84420092 -335.5234375 311.69140625 C-318.49524716 300.40166225 -301.6189961 288.88453716 -285 277 C-284.2682959 276.47696289 -283.5365918 275.95392578 -282.78271484 275.41503906 C-272.7473466 268.22996569 -262.81729863 260.91688876 -252.96777344 253.47949219 C-250.98748576 251.99059103 -248.99904171 250.51329125 -247.0078125 249.0390625 C-239.48066428 243.45606075 -232.10676513 237.73037676 -224.86157227 231.78540039 C-220.60213914 228.2908158 -216.2924467 224.8744524 -211.9375 221.5 C-206.25659686 217.08241958 -200.80459193 212.43685838 -195.39428711 207.69311523 C-191.82407908 204.56552187 -188.20997652 201.52498496 -184.5 198.5625 C-178.54072986 193.74341906 -173.01850299 188.4838215 -167.4453125 183.23046875 C-164.31155278 180.27961002 -161.11327608 177.41871389 -157.85546875 174.60546875 C-149.74357528 167.58654619 -141.94243225 160.22935055 -134.1328125 152.87890625 C-131.53549202 150.43582814 -128.92798543 148.00499943 -126.3046875 145.58984375 C-119.05952466 138.90959446 -111.97985084 132.08259409 -105 125.125 C-104.21069092 124.3402832 -103.42138184 123.55556641 -102.6081543 122.74707031 C-98.41300564 118.5407679 -94.39909697 114.24358132 -90.5234375 109.74169922 C-88.61218241 107.55662008 -86.58309596 105.52091399 -84.5 103.5 C-81.17230537 100.21145472 -78.04663559 96.83618376 -75.00390625 93.28515625 C-72.94337953 90.9354328 -70.8256994 88.6500571 -68.69262695 86.36645508 C-63.69525833 81.01418845 -58.91312045 75.57022027 -54.328125 69.85546875 C-52.18612676 67.22828635 -49.98917413 64.6666097 -47.76220703 62.11206055 C-41.66004775 55.10255727 -35.96297083 47.84845283 -30.36328125 40.43359375 C-27.48621571 36.62484258 -24.55570495 32.86086594 -21.61010742 29.10498047 C-15.88288405 21.80107887 -10.3215892 14.41687097 -4.98828125 6.8203125 C-3.36287428 4.5147254 -1.70791228 2.24468471 0 0 Z " fill="#FDFDFD" transform="translate(975,281)"/>
  <path d="M0 0 C1.25250974 3.70155752 0.86523029 6.83347845 0.43359375 10.68359375 C0.359664 11.35517517 0.28573425 12.02675659 0.20956421 12.71868896 C-0.03998384 14.95924967 -0.30083784 17.19832391 -0.5625 19.4375 C-0.74204252 21.01667167 -0.92148366 22.59585487 -1.10083008 24.17504883 C-2.86202862 39.48567793 -4.904403 54.76039873 -6.98071289 70.03100586 C-7.17012955 71.42515717 -7.17012955 71.42515717 -7.3633728 72.84747314 C-7.59907125 74.57814913 -7.83589232 76.30867281 -8.0741272 78.03900146 C-9.58509641 88.89001889 -9.58509641 88.89001889 -10.3125 99.8125 C-10.36857422 101.15248047 -10.36857422 101.15248047 -10.42578125 102.51953125 C-9.85027564 105.87224742 -8.67050433 106.94298991 -6 109 C-3.45297797 110.07772378 -3.45297797 110.07772378 -0.6875 110.6875 C0.21613281 110.91824219 1.11976563 111.14898437 2.05078125 111.38671875 C7.77820721 112.57771991 13.40259522 113.1408505 19.24609375 113.31640625 C20.23005882 113.3475779 20.23005882 113.3475779 21.23390198 113.37937927 C23.30167546 113.44405938 25.36956101 113.50337466 27.4375 113.5625 C28.85092242 113.60576307 30.26433407 113.64937965 31.67773438 113.69335938 C35.11837471 113.79965516 38.55913692 113.90114472 42 114 C40.11499101 118.07824465 37.38360755 121.02401495 34.3125 124.25 C31.00059869 127.76069998 27.7296243 131.2880038 24.5703125 134.9375 C10.50862229 151.08433965 -5.08508634 165.58108718 -25 174 C-25.84691406 174.35835937 -26.69382812 174.71671875 -27.56640625 175.0859375 C-35.68008592 177.99991142 -46.45823842 179.02022637 -54.5 175.5 C-64.54553403 169.19436176 -69.22578221 158.12545432 -72.140625 147.01171875 C-73.52157804 140.33840609 -73.44145383 133.53842832 -73.4375 126.75 C-73.43790283 126.04169037 -73.43830566 125.33338074 -73.4387207 124.60360718 C-73.39811346 112.17306422 -71.97820442 100.81526713 -68 89 C-67.71060547 88.12843262 -67.42121094 87.25686523 -67.12304688 86.35888672 C-55.32594083 51.65009754 -35.0309696 25.80057728 -5.66894531 4.22753906 C-3.76990485 2.83076091 -1.88243498 1.41906637 0 0 Z " fill="#046CBA" transform="translate(334,197)"/>
  <path d="M0 0 C0.61824925 3.68365228 1.23498529 7.36755532 1.8508606 11.05160522 C2.18921401 13.07273853 2.52904441 15.09362017 2.86889648 17.11450195 C4.06323753 24.23863879 5.2199097 31.36612972 6.3046875 38.5078125 C6.62205978 40.56965507 6.94017567 42.63138174 7.25845337 44.69308472 C7.55485817 46.6373729 7.8394766 48.58344638 8.1237793 50.52954102 C10.17576848 63.79554075 13.33661664 72.54077263 23 82 C23.5053125 82.57234375 24.010625 83.1446875 24.53125 83.734375 C26.722508 86.00207223 28.45663556 86.97552412 31.6015625 87.1171875 C33.53702263 87.0389344 35.47200205 86.94774183 37.40625 86.84375 C41.27910751 87.07705467 43.08227573 89.56856311 46 92 C48.86814463 92.24391846 51.54823492 92.13166588 54.4140625 91.8828125 C57.58692231 92.02659769 58.53922832 93.09472925 61 95 C66.1708946 95.78194016 71.33185446 95.48967762 76 93 C76.66 93.66 77.32 94.32 78 95 C81.72000195 97.4800013 84.69672428 97.7297953 89 97 C92.40241824 95.6351132 92.40241824 95.6351132 95 94 C95.515625 94.474375 96.03125 94.94875 96.5625 95.4375 C99.82662529 97.52988801 102.12696648 97.93322356 106 98 C109.23761134 96.14749996 109.23761134 96.14749996 112 94 C115 94 115 94 118 96 C122.3018323 96.6309354 125.95472696 96.55747895 129.8125 94.5 C134.05162234 92.5051189 137.57524924 92.86060397 142.1953125 93.08984375 C145.13265384 92.99575064 146.5865506 92.63578237 149 91 C149.99 89.515 149.99 89.515 151 88 C153.64453125 87.4453125 153.64453125 87.4453125 156.8125 87.125 C162.1958913 86.33577815 164.62437118 85.46774402 168 81 C168.97879288 79.93715565 169.95798808 78.87468172 170.9375 77.8125 C183.0876398 63.25731968 184.94601636 45.62383978 187.6875 27.5 C187.99722376 25.49466436 188.30776544 23.48945488 188.61914062 21.484375 C189.18696447 17.82302095 189.7497428 14.16096636 190.30737305 10.49804688 C190.84273429 6.99359942 191.40549511 3.49498978 192 0 C193.9169986 0.31045732 195.83358723 0.62344671 197.75 0.9375 C198.81734375 1.11152344 199.8846875 1.28554688 200.984375 1.46484375 C203.36623068 1.88753057 205.66101161 2.39760016 208 3 C207.85377197 3.77037598 207.70754395 4.54075195 207.55688477 5.33447266 C204.15542735 23.73553424 202.38655006 41.59258115 202.36547852 60.31689453 C202.32071421 70.80423068 201.97883893 79.75741017 194.43359375 87.8203125 C191.41022021 90.52824579 188.17220331 92.82718693 184.875 95.1875 C172.77964106 103.86366085 161.50506559 114.85480618 152.1484375 126.4375 C146.47153005 133.20850234 137.13906936 138.27775655 128.34375 139.3125 C123.62823668 139.42090261 119.24449548 138.9055261 114.625 138 C108.8563426 136.94291618 103.22212892 136.77462381 97.375 136.75 C96.50439941 136.74097656 95.63379883 136.73195313 94.73681641 136.72265625 C89.39404964 136.74684535 84.50525547 137.39285563 79.29052734 138.53271484 C69.08756859 140.61419673 59.96437461 139.15634935 51 134 C44.88590538 129.12414836 39.44251805 123.48078208 34.02392578 117.8581543 C25.78130449 109.3261269 17.34363659 101.75026816 7.62353516 94.93310547 C0.67502763 90.02397415 -5.11660632 85.15245645 -7.55175781 76.72363281 C-8.43320325 71.36774757 -8.11578423 65.96278065 -7.94067383 60.55825806 C-7.44012281 43.91796064 -9.27436909 28.40767828 -12.54101562 12.10083008 C-13.04500132 8.69597775 -13.07559355 5.43707687 -13 2 C-11.58461283 1.66127487 -10.16762037 1.32925376 -8.75 1 C-7.56664062 0.7215625 -7.56664062 0.7215625 -6.359375 0.4375 C-4 0 -4 0 0 0 Z " fill="#FCFCFC" transform="translate(414,464)"/>
  <path d="M0 0 C20.06918635 13.63897291 29.4796772 34.87717243 38.64453125 56.46875 C39.21507284 57.80656567 39.78562957 59.14437487 40.35620117 60.48217773 C41.47218558 63.10049604 42.57025341 65.72533762 43.6574707 68.35571289 C50.83647917 85.48585259 60.32411979 95.40306933 77.4375 102.9375 C77.01597656 103.82953125 76.59445312 104.7215625 76.16015625 105.640625 C75.33837891 107.39632812 75.33837891 107.39632812 74.5 109.1875 C73.68208984 110.92773438 73.68208984 110.92773438 72.84765625 112.703125 C66.76245008 126.66032918 70.38008503 144.17240644 75.4375 157.9375 C81.48686 172.95648454 90.17092517 188.33801947 105 195.9375 C109.48823161 197.24316738 111.89005799 197.05572344 116.4375 195.9375 C118.77083333 194.27083333 118.77083333 194.27083333 120.4375 191.9375 C125.05022902 186.10375448 125.05022902 186.10375448 128.42578125 185.69921875 C132.40734379 185.57207642 134.82647101 185.59948396 138.375 187.5625 C141.86132982 191.57706161 142.67139864 195.0994973 142.3125 200.3125 C141.13845565 208.1746397 137.7835264 213.39144671 131.65625 218.3984375 C122.74803392 224.57772823 113.09013538 225.93942354 102.4375 224.9375 C93.40918325 222.7796065 86.22792655 219.22591058 79.4375 212.9375 C78.77492188 212.36515625 78.11234375 211.7928125 77.4296875 211.203125 C58.69143628 194.00802388 51.99260019 166.41248259 44.52548218 143.05352783 C42.25420602 135.9499381 39.94023091 128.86016848 37.62890625 121.76953125 C37.4026034 121.07443703 37.17630054 120.3793428 36.94314003 119.66318512 C23.38216972 67.36920552 23.38216972 67.36920552 -7.41796875 26.7890625 C-11.20136952 25.2867285 -14.59534689 25.01747377 -18.5625 25.9375 C-22.74101195 28.69689469 -25.51145573 32.01472879 -28.5625 35.9375 C-31.77935579 37.54592789 -35.0736009 37.40528535 -38.5625 36.9375 C-42.98733445 34.68333906 -45.43332141 32.41998125 -47.5625 27.9375 C-49.71404817 20.88774643 -49.59712731 13.26448041 -46.5 6.5625 C-42.82688467 0.13454817 -37.88302078 -4.30908275 -30.78125 -6.58984375 C-19.69013767 -8.9525631 -9.55423401 -5.65371458 0 0 Z " fill="#FDFDFD" transform="translate(242.5625,671.0625)"/>
  <path d="M0 0 C5.03266998 4.01681622 8.31215857 8.23926947 9.796875 14.55859375 C10.6657266 22.53211728 10.84906933 29.1030121 5.796875 35.55859375 C5.24 36.34234375 4.683125 37.12609375 4.109375 37.93359375 C0.56166172 40.42658146 -2.90392981 40.99972856 -7.203125 40.55859375 C-11.42856702 37.84793283 -14.13422814 34.47408285 -17.203125 30.55859375 C-20.94953697 28.06098577 -23.86828209 27.8283514 -28.203125 28.55859375 C-35.08847377 31.25513718 -39.20979872 36.56860434 -43.203125 42.55859375 C-43.80640625 43.45320312 -44.4096875 44.3478125 -45.03125 45.26953125 C-52.59433794 57.47500244 -57.22365789 71.15527219 -62.203125 84.55859375 C-62.63463867 85.71407715 -63.06615234 86.86956055 -63.51074219 88.06005859 C-70.80222909 107.7259062 -77.17228257 127.67801838 -83.45776367 147.68408203 C-94.30344325 182.10836866 -94.30344325 182.10836866 -100.953125 194.49609375 C-101.36796143 195.27621826 -101.78279785 196.05634277 -102.21020508 196.86010742 C-106.24457066 204.13971878 -111.1592518 209.85153083 -117.203125 215.55859375 C-117.82960938 216.17992187 -118.45609375 216.80125 -119.1015625 217.44140625 C-128.09485288 225.84358834 -139.404916 229.12181329 -151.4921875 228.94140625 C-159.97146249 228.06670209 -168.34327758 224.85792973 -174.203125 218.55859375 C-179.29424653 211.45892016 -181.36209478 205.3894396 -180.203125 196.55859375 C-178.55604371 193.38120186 -176.44749016 191.18077633 -173.203125 189.55859375 C-168.22203241 189.18266223 -165.14638636 189.38207765 -161.203125 192.55859375 C-158.203125 196.79997306 -158.203125 196.79997306 -158.203125 199.55859375 C-151.27615942 201.47755043 -145.48910303 201.25104346 -139.125 197.82421875 C-123.05781835 187.24339181 -113.42154506 166.30085058 -109.390625 148.05859375 C-106.72477747 133.16661788 -108.50799645 122.47541667 -116.203125 109.55859375 C-116.203125 108.89859375 -116.203125 108.23859375 -116.203125 107.55859375 C-115.38070312 107.15769531 -114.55828125 106.75679687 -113.7109375 106.34375 C-95.03906509 96.83532537 -87.35476859 83.63005573 -79.328125 64.99609375 C-55.42567335 9.80430964 -55.42567335 9.80430964 -27.203125 -2.44140625 C-17.91043675 -5.86502824 -8.4037845 -5.49822071 0 0 Z " fill="#FDFDFD" transform="translate(820.203125,668.44140625)"/>
  <path d="M0 0 C8.39034734 7.31695535 14.83230651 18.41329703 15.67700195 29.67163086 C16.36206457 58.8018036 16.36206457 58.8018036 6.4375 70.4375 C-0.56000686 77.20928083 -7.48416359 78.70412986 -16.97363281 78.765625 C-34.4326483 78.408618 -51.86356553 69.50230684 -64.31640625 57.6015625 C-72.54594306 48.97453464 -78.83202601 39.59537753 -79.8125 27.4375 C-79.57877109 20.32939136 -77.23963873 14.11238066 -72.3359375 8.93359375 C-55.90882645 -5.57119579 -19.10699947 -13.28081213 0 0 Z " fill="#010202" transform="translate(614.5,339.6875)"/>
  <path d="M0 0 C1.05445313 0.57878906 2.10890625 1.15757812 3.1953125 1.75390625 C4.28070313 2.36105469 5.36609375 2.96820312 6.484375 3.59375 C7.58523438 4.20089844 8.68609375 4.80804687 9.8203125 5.43359375 C11.84892893 6.55257259 13.87551715 7.67524179 15.89941406 8.80273438 C17.32972043 9.5935604 18.77254543 10.36283522 20.234375 11.09375 C20.234375 11.75375 20.234375 12.41375 20.234375 13.09375 C-27.75360862 35.09627261 -76.09792736 54.99497251 -126.640625 70.46875 C-127.55440918 70.74879883 -128.46819336 71.02884766 -129.40966797 71.31738281 C-135.36814466 73.09375 -135.36814466 73.09375 -138.765625 73.09375 C-141.29275135 65.51237094 -140.53044028 57.20321597 -137.03125 50.09375 C-133.65383058 44.75659339 -130.79144773 42.24148675 -124.77734375 40.31640625 C-123.29841604 39.80901576 -121.81949381 39.30160929 -120.34057617 38.79418945 C-119.15218643 38.39666977 -119.15218643 38.39666977 -117.93978882 37.99111938 C-113.56435141 36.52211553 -109.21131645 34.99012313 -104.859375 33.453125 C-103.91196945 33.11863846 -102.9645639 32.78415192 -101.9884491 32.43952942 C-89.34631585 27.93154084 -76.9050809 22.91043264 -64.453125 17.90625 C-63.31741058 17.45138214 -62.18169617 16.99651428 -61.01156616 16.52786255 C-57.6611199 15.18512333 -54.31249839 13.83796442 -50.96484375 12.48828125 C-49.88381882 12.05298599 -48.80279388 11.61769073 -47.68901062 11.16920471 C-41.93188498 8.83553078 -36.21424005 6.4320092 -30.52587891 3.93505859 C-28.75335503 3.16279182 -28.75335503 3.16279182 -26.94502258 2.37492371 C-24.68395282 1.3855138 -22.42836548 0.38344791 -20.17936707 -0.63310242 C-19.16344986 -1.07684708 -18.14753265 -1.52059174 -17.10083008 -1.9777832 C-16.21285233 -2.37504105 -15.32487457 -2.77229889 -14.4099884 -3.18159485 C-8.97144944 -4.67195932 -4.73178256 -2.62365684 0 0 Z " fill="#FDFDFD" transform="translate(465.765625,736.90625)"/>
  <path d="M0 0 C1.04929687 -0.02578125 2.09859375 -0.0515625 3.1796875 -0.078125 C6.43056586 0.28404182 7.74850767 1.06867854 10.125 3.25 C9.92003906 3.84167969 9.71507812 4.43335938 9.50390625 5.04296875 C9.23449219 5.83316406 8.96507812 6.62335937 8.6875 7.4375 C8.42066406 8.21480469 8.15382813 8.99210938 7.87890625 9.79296875 C4.44927365 20.9703724 6.29319844 30.41631204 10.125 41.25 C10.455 42.24 10.785 43.23 11.125 44.25 C1.58159031 48.05453958 -7.85704839 51.53749503 -17.9375 53.625 C-18.68491455 53.78000977 -19.4323291 53.93501953 -20.20239258 54.09472656 C-43.82407878 58.68166463 -76.27093442 59.99577094 -98.875 50.25 C-100.4578581 47.0842838 -98.85136385 44.28269393 -97.8125 41.08203125 C-97.46904541 40.01247444 -97.46904541 40.01247444 -97.11865234 38.92131042 C-96.62841369 37.40767171 -96.13381657 35.89543888 -95.63525391 34.38452148 C-94.88568797 32.09514397 -94.16713648 29.79751114 -93.44921875 27.49804688 C-90.46841205 18.24776933 -87.49479578 12.03043578 -79.28515625 6.5078125 C-74.05214311 3.98273129 -69.71025784 2.45840207 -63.875 2.25 C-63.215 2.58 -62.555 2.91 -61.875 3.25 C-62.74020384 8.37160891 -64.44706389 13.21124453 -66.14648438 18.10351562 C-67.75430294 23.00197159 -68.19263004 27.08990498 -67.875 32.25 C-66.93291909 34.44411252 -66.93291909 34.44411252 -64.875 35.25 C-61.83783646 35.81518934 -61.83783646 35.81518934 -58.875 34.25 C-57.008886 31.11995772 -55.99925578 27.70307132 -54.875 24.25 C-49.06103419 7.09470651 -49.06103419 7.09470651 -40.9140625 2.03125 C-38.61472306 1.15027703 -37.23905394 1.11489456 -34.8125 1.4375 C-34.14089844 1.51355469 -33.46929688 1.58960938 -32.77734375 1.66796875 C-30.46487742 2.37547898 -29.51269768 3.51445155 -27.875 5.25 C-28.308125 6.4565625 -28.74125 7.663125 -29.1875 8.90625 C-29.75064795 10.52060745 -30.31311164 12.13520371 -30.875 13.75 C-31.16117188 14.54148437 -31.44734375 15.33296875 -31.7421875 16.1484375 C-33.55393136 21.41112203 -34.28109621 25.68155959 -33.875 31.25 C-32.93291909 33.44411252 -32.93291909 33.44411252 -30.875 34.25 C-27.81003351 34.57294477 -27.81003351 34.57294477 -24.875 33.25 C-23.4654647 30.81041968 -22.69262323 28.90727549 -21.875 26.25 C-15.54196534 6.22316671 -15.54196534 6.22316671 -7.875 1.25 C-5.18393093 -0.09553453 -3.00334578 0.04405886 0 0 Z " fill="#FCFCFC" transform="translate(856.875,748.75)"/>
  <path d="M0 0 C6.07016765 2.52056485 9.16432148 6.59814535 11.98828125 12.4140625 C13.47912468 16.20753368 14.70836061 20.06711961 15.91015625 23.9609375 C17.24698865 29.05859069 17.24698865 29.05859069 19.98828125 33.4140625 C22.94632698 33.74746721 22.94632698 33.74746721 25.98828125 33.4140625 C28.67027129 29.39107745 28.55070772 26.06566024 27.98828125 21.4140625 C27.10604806 18.00089791 26.07561593 14.67606655 24.9609375 11.33203125 C24.19400324 9.03122846 23.53129496 6.77474316 22.98828125 4.4140625 C26.02163739 1.96780755 28.46538872 1.0910706 32.30078125 1.1640625 C37.29065892 2.0163965 39.91726348 4.25546064 43.06640625 8.12890625 C46.9224073 14.72016007 49.03902622 22.10126637 51.24560547 29.38037109 C51.99425617 31.67828733 51.99425617 31.67828733 53.98828125 34.4140625 C55.96575247 34.77704186 55.96575247 34.77704186 58.11328125 34.6015625 C59.39203125 34.5396875 60.67078125 34.4778125 61.98828125 34.4140625 C63.21243071 27.35761476 62.63382632 22.75020026 60.11328125 16.1015625 C59.55246083 14.5433012 58.99253295 12.98471832 58.43359375 11.42578125 C58.18109863 10.74990967 57.92860352 10.07403809 57.66845703 9.37768555 C56.98625413 7.40821034 56.46332786 5.44249452 55.98828125 3.4140625 C59.81464896 1.50087865 63.95325734 2.4245471 67.98828125 3.4140625 C74.98169737 6.8827969 82.15256624 11.38815998 85.47387695 18.67211914 C85.86663818 19.87731201 86.25939941 21.08250488 86.6640625 22.32421875 C86.87894821 22.97353867 87.09383392 23.62285858 87.31523132 24.29185486 C87.76323449 25.65522916 88.20404769 27.02098537 88.63793945 28.38891602 C89.30159883 30.47913749 89.98762034 32.56095884 90.67773438 34.64257812 C93.98828125 44.78889507 93.98828125 44.78889507 93.98828125 49.4140625 C91.2603284 50.04476765 88.53107636 50.66864089 85.80078125 51.2890625 C85.05119141 51.46308594 84.30160156 51.63710938 83.52929688 51.81640625 C70.75609072 54.70240262 58.47640279 55.79176709 45.42578125 55.7265625 C44.23382645 55.72283127 44.23382645 55.72283127 43.01779175 55.71902466 C22.69565355 55.62069214 2.50354707 53.67169541 -16.01171875 44.4140625 C-15.80675781 43.81078125 -15.60179687 43.2075 -15.390625 42.5859375 C-15.12121094 41.78671875 -14.85179687 40.9875 -14.57421875 40.1640625 C-14.30738281 39.37515625 -14.04054687 38.58625 -13.765625 37.7734375 C-10.18696736 26.57390788 -10.95464716 13.37781549 -15.01171875 2.4140625 C-9.86194354 -0.60044006 -5.8554721 -1.70547731 0 0 Z " fill="#FCFCFC" transform="translate(172.01171875,748.5859375)"/>
  <path d="M0 0 C7.7049573 5.24123038 12.26328718 11.72239374 15.19921875 20.60546875 C17.67660122 34.28061999 14.90903792 47.67414641 7.27734375 59.26171875 C0.40551638 68.17732236 -7.32573879 73.41047868 -18.41015625 75.76171875 C-28.78819708 76.28941574 -37.02755079 74.10382156 -45.41015625 67.76171875 C-47.95006049 65.23995668 -50.23370479 62.60119515 -52.41015625 59.76171875 C-50.5859375 58.22265625 -50.5859375 58.22265625 -48.41015625 56.76171875 C-44.97494842 57.52509827 -42.18123269 58.87618053 -39.03515625 60.44921875 C-34.38820004 62.13173738 -32.18300999 61.95493219 -27.41015625 60.76171875 C-25.19264717 59.22247235 -25.19264717 59.22247235 -24.41015625 56.76171875 C-24.36884758 53.74214392 -24.36884758 53.74214392 -25.41015625 50.76171875 C-27.93763952 49.01967771 -27.93763952 49.01967771 -31.09765625 47.88671875 C-38.41300869 44.55523244 -41.73581496 40.79535914 -44.78515625 33.44921875 C-46.34415815 24.25110756 -45.89845068 16.10615347 -41.41015625 7.76171875 C-31.29246419 -5.85034551 -14.61056432 -8.41333167 0 0 Z " fill="#FDFDFD" transform="translate(922.41015625,747.23828125)"/>
  <path d="M0 0 C7.05117984 5.12530693 11.03712317 11.08011951 13.7734375 19.2890625 C14.59595629 28.1479944 13.64209328 35.72713488 8.48828125 43.13671875 C5.13843241 46.93445825 1.56742445 48.36412719 -3.2734375 49.6484375 C-5.43224411 50.19373844 -5.43224411 50.19373844 -7.2265625 52.2890625 C-7.72664044 55.74692265 -7.72664044 55.74692265 -7.2265625 59.2890625 C-5.10985663 61.42020046 -3.87519091 62.23982668 -0.859375 62.46875 C4.36241656 61.83432673 8.0552716 60.70300785 12.7734375 58.2890625 C15.6484375 58.6015625 15.6484375 58.6015625 17.7734375 59.2890625 C17.7734375 63.2890625 17.7734375 63.2890625 16.59375 65.03515625 C9.25521161 72.35678557 1.01991738 76.36414308 -9.3515625 76.6015625 C-18.99225506 76.52582193 -27.17514162 73.08941872 -34.19140625 66.421875 C-44.70330427 55.42059626 -47.8691576 42.48941871 -47.5390625 27.68359375 C-47.02974185 17.67756512 -41.96125454 9.89578989 -34.9140625 3.0390625 C-24.44401923 -3.77864009 -11.40927634 -6.6915165 0 0 Z " fill="#FDFDFD" transform="translate(133.2265625,745.7109375)"/>
  <path d="M0 0 C5.99181554 1.42178674 8.38235889 4.81623186 11.6875 9.875 C21.58809817 27.62217978 35.60252209 54.90106055 32.6875 75.875 C31.07054759 80.55565172 29.04975492 83.46183771 24.6875 85.875 C20.24208596 86.83306337 16.447202 86.88621764 12.4375 84.58203125 C6.27546119 79.4820105 2.52551431 73.26406429 -0.3125 65.875 C-0.98345703 67.19564453 -0.98345703 67.19564453 -1.66796875 68.54296875 C-2.27253906 69.70441406 -2.87710937 70.86585938 -3.5 72.0625 C-4.09167969 73.21105469 -4.68335938 74.35960937 -5.29296875 75.54296875 C-8.60318899 81.00451201 -12.33436541 84.55694781 -18.3125 86.875 C-22.19664889 87.42987841 -23.73205598 87.24437347 -27.0625 85.125 C-31.65736318 80.53013682 -31.73573619 76.36758919 -31.75 70.125 C-31.72021801 60.62183668 -29.84646128 52.6715547 -26.3125 43.875 C-25.99071777 43.06272949 -25.66893555 42.25045898 -25.33740234 41.41357422 C-21.50822089 31.86299775 -17.30265232 22.50912501 -12.5625 13.375 C-12.21026367 12.68736572 -11.85802734 11.99973145 -11.49511719 11.29125977 C-8.73779852 6.13776141 -5.92634491 1.5654496 0 0 Z " fill="#010202" transform="translate(506.3125,367.125)"/>
  <path d="M0 0 C1.76986529 1.32809797 3.51762442 2.68585836 5.25 4.0625 C7.94121482 5.71190985 10.69396738 7.25204374 13.4375 8.8125 C15.77926285 10.1619002 18.00560912 11.54806621 20.25 13.0625 C20.25 13.7225 20.25 14.3825 20.25 15.0625 C-0.74593766 24.56664588 -22.1935208 32.92738719 -43.75 41.0625 C-45.13847137 41.58692688 -45.13847137 41.58692688 -46.55499268 42.12194824 C-52.06528707 44.19701045 -57.58669149 46.23759719 -63.12527466 48.23596191 C-64.85926316 48.86458239 -66.59053072 49.50076558 -68.31881714 50.14489746 C-70.72576338 51.03893882 -73.14173151 51.90202669 -75.5625 52.7578125 C-76.60997154 53.15641983 -76.60997154 53.15641983 -77.67860413 53.56307983 C-84.51871884 55.90745345 -89.92040342 54.22305335 -96.4453125 51.546875 C-102.86897803 48.298461 -108.55387209 45.13491058 -113.75 40.0625 C-111.67742294 37.98992294 -110.65762791 37.53008457 -107.95092773 36.62060547 C-107.16094391 36.35146332 -106.37096008 36.08232117 -105.55703735 35.80502319 C-104.69130096 35.51616241 -103.82556458 35.22730164 -102.93359375 34.9296875 C-101.05497853 34.29005377 -99.17648462 33.65006364 -97.2980957 33.00976562 C-96.30234528 32.67243408 -95.30659485 32.33510254 -94.28067017 31.98754883 C-77.23368264 26.20055092 -60.3196613 20.14303933 -43.5625 13.5625 C-42.74433807 13.24214783 -41.92617615 12.92179565 -41.08322144 12.59173584 C-38.70613837 11.65911417 -36.33109876 10.72151947 -33.95703125 9.78125 C-33.20348862 9.48376358 -32.44994598 9.18627716 -31.67356873 8.879776 C-27.59435196 7.25325892 -23.56482309 5.54869994 -19.55908203 3.74829102 C-18.70174973 3.36866211 -17.84441742 2.9890332 -16.96110535 2.59790039 C-15.31787695 1.86633772 -13.68135339 1.11945726 -12.05317688 0.35498047 C-7.38058623 -1.71505541 -4.79952882 -2.50483951 0 0 Z " fill="#FCFCFC" transform="translate(420.75,709.9375)"/>
  <path d="M0 0 C3.41556639 3.50544972 4.95896127 5.78935748 5.125 10.6875 C5.04752415 14.56129247 4.96235393 18.22461149 4 22 C1.18728969 24.56452999 -0.65950546 24.96285514 -4.4375 25.375 C-8.27704836 24.97083701 -10.62378762 23.79494835 -14 22 C-14.08165496 19.79229195 -14.13948488 17.58369575 -14.1875 15.375 C-14.23970703 13.53035156 -14.23970703 13.53035156 -14.29296875 11.6484375 C-13.9106554 6.88736197 -12.44555486 3.60043574 -9.25 0.0625 C-5.80050209 -1.56642957 -3.61251179 -1.03214623 0 0 Z " fill="#F9F9F9" transform="translate(500,502)"/>
  <path d="M0 0 C3.85749863 0.9474558 5.18442733 1.76521267 7.5625 4.875 C8.81683458 8.63800374 8.66945422 12.14710909 8.625 16.0625 C8.62048828 16.81208984 8.61597656 17.56167969 8.61132812 18.33398438 C8.59956354 20.18102383 8.58162865 22.02802213 8.5625 23.875 C5.44860696 25.69143761 3.15472291 26.1469038 -0.4375 26.125 C-1.7059375 26.13273438 -1.7059375 26.13273438 -3 26.140625 C-5.57228811 25.86031155 -7.2178108 25.1698187 -9.4375 23.875 C-9.51876109 21.14522936 -9.57811663 18.4178983 -9.625 15.6875 C-9.65013672 14.91857422 -9.67527344 14.14964844 -9.70117188 13.35742188 C-9.76130764 8.68687726 -9.49174203 5.65542545 -6.4375 1.875 C-3.4375 -0.125 -3.4375 -0.125 0 0 Z " fill="#FBFBFB" transform="translate(522.4375,501.125)"/>
  <path d="M0 0 C4.35849747 4.60063622 5.12921676 7.98284157 5.0625 14.1875 C5.05347656 15.27417969 5.04445313 16.36085938 5.03515625 17.48046875 C5.02355469 18.31191406 5.01195312 19.14335938 5 20 C0.31499227 22.6635577 -3.44218144 24.79397408 -9 24 C-12.13379014 20.86620986 -11.3683259 17.38975075 -11.375 13.125 C-11.39949219 12.30902344 -11.42398438 11.49304688 -11.44921875 10.65234375 C-11.47868048 4.632331 -11.47868048 4.632331 -9.1015625 1.4921875 C-5.61384779 -0.9842196 -4.1223085 -1.37410283 0 0 Z " fill="#FAFBFA" transform="translate(551,501)"/>
  <path d="M0 0 C6.20410783 0.22978177 6.20410783 0.22978177 8.9375 2.875 C11.05487709 9.10257969 10.66689682 16.66579208 9 23 C6.12063188 24.43968406 4.20992381 24.302823 1 24 C-1.50290327 22.85137305 -3.66962723 21.49143857 -6 20 C-6.64665162 12.1827004 -6.02656926 7.16372756 -1 1 C-0.67 0.67 -0.34 0.34 0 0 Z " fill="#FAFAFA" transform="translate(468,500)"/>
  <path d="M0 0 C3.49948367 5.39503733 4.02552528 10.74917924 3 17 C0.2660766 20.47953888 -1.48392402 20.89847686 -5.8125 21.75 C-7.3903125 21.87375 -7.3903125 21.87375 -9 22 C-10.86247848 16.41256456 -11.58641471 8.4229695 -9.05859375 2.96875 C-6.36588346 0.06501226 -3.82043489 -0.54577641 0 0 Z " fill="#FAFAFA" transform="translate(574,498)"/>
  <path d="M0 0 C3.3125 0.125 3.3125 0.125 7 1 C10.53240412 5.55794079 10.62092694 10.46255316 10 16 C9 19.0625 9 19.0625 8 21 C0.19373323 20.24939743 0.19373323 20.24939743 -3 17 C-3.49609375 14.2578125 -3.49609375 14.2578125 -3.4375 11.125 C-3.43621094 10.09632813 -3.43492187 9.06765625 -3.43359375 8.0078125 C-2.95446022 4.6840934 -1.9024398 2.7350726 0 0 Z " fill="#FAFAFA" transform="translate(445,498)"/>
  <path d="M0 0 C2.32613583 3.48920374 2.24247293 4.94952546 2.1875 9.0625 C2.17783203 10.65771484 2.17783203 10.65771484 2.16796875 12.28515625 C2 15 2 15 1 17 C-1.64860427 17.59355614 -4.29197322 17.74209269 -7 18 C-9.67402956 12.76335878 -11.26050391 7.91376603 -10 2 C-6.75463573 -1.15263958 -4.21024321 -1.593065 0 0 Z " fill="#F7F7F7" transform="translate(541,536)"/>
  <path d="M0 0 C1 1 1 1 1.25 4.625 C1.18545043 9.10312626 0.22443237 12.10724335 -2 16 C-3.875 17.125 -3.875 17.125 -6 17 C-8.61328125 15.91015625 -8.61328125 15.91015625 -11 14 C-11.48828125 10.86328125 -11.48828125 10.86328125 -11.3125 7.3125 C-11.26738281 6.13300781 -11.22226562 4.95351563 -11.17578125 3.73828125 C-11.11777344 2.83464844 -11.05976563 1.93101562 -11 1 C-7.00834894 -1.29982545 -4.50463153 -0.93492352 0 0 Z " fill="#F5F5F5" transform="translate(505,538)"/>
  <path d="M0 0 C0.99 0.66 1.98 1.32 3 2 C3.43359375 4.71484375 3.43359375 4.71484375 3.4375 7.9375 C3.45683594 8.99839844 3.47617187 10.05929687 3.49609375 11.15234375 C3 14 3 14 1.1328125 15.84765625 C-1.55460682 17.29965021 -2.99600239 17.61620464 -6 17 C-9.59488604 13.28115237 -9.35446307 9.09552222 -9.3984375 4.20703125 C-9.26695312 3.47871094 -9.13546875 2.75039063 -9 2 C-5.53001271 -0.31332486 -4.07490752 -0.33957563 0 0 Z " fill="#FAFAFA" transform="translate(521,538)"/>
  <path d="M0 0 C5.75 0.75 5.75 0.75 8 3 C8.66065191 7.94517384 8.30905137 12.52621297 6 17 C-0.75 18.125 -0.75 18.125 -3 17 C-3.08126087 14.91731407 -3.13930839 12.83371342 -3.1875 10.75 C-3.22230469 9.58984375 -3.25710938 8.4296875 -3.29296875 7.234375 C-2.97982934 3.77731593 -2.34290892 2.48434437 0 0 Z " fill="#F8F8F8" transform="translate(479,535)"/>
  <path d="M0 0 C0.33278764 6.81598387 0.24201565 11.92122066 -3 18 C-4.65 18 -6.3 18 -8 18 C-11.01117088 12.98138186 -11.55231257 9.70722989 -11 4 C-8.87613735 -1.30965662 -5.01877178 -0.32909979 0 0 Z " fill="#F7F7F8" transform="translate(561,533)"/>
  <path d="M0 0 C6.35294118 0.35294118 6.35294118 0.35294118 8.734375 2.734375 C10.27796613 5.49759369 10.24179012 6.94478397 9.875 10.0625 C9.78992188 10.91972656 9.70484375 11.77695312 9.6171875 12.66015625 C8.91550522 15.32033148 8.19552525 16.37071727 6 18 C3.4375 18 3.4375 18 1 17 C-0.88791009 13.35348874 -1.2480126 10.32084783 -1.1875 6.25 C-1.17783203 4.80367187 -1.17783203 4.80367187 -1.16796875 3.328125 C-1 1 -1 1 0 0 Z " fill="#F0F0F0" transform="translate(459,532)"/>
  <path d="M0 0 C6.72 0.72 6.72 0.72 8 2 C8.12494616 3.62139437 8.17571624 5.24884122 8.1875 6.875 C8.20167969 7.75929688 8.21585937 8.64359375 8.23046875 9.5546875 C8 12 8 12 6 15 C3.5 15.375 3.5 15.375 1 15 C-1.26166232 11.60750652 -1.24515545 10.34798499 -1.1875 6.375 C-1.18105469 5.39273438 -1.17460937 4.41046875 -1.16796875 3.3984375 C-1 1 -1 1 0 0 Z " fill="#FAFAFA" transform="translate(443,529)"/>
  <path d="M0 0 C0.05410687 1.77049689 0.09284119 3.54146849 0.125 5.3125 C0.14820313 6.29863281 0.17140625 7.28476562 0.1953125 8.30078125 C0 11 0 11 -2 14 C-5.0625 14.25 -5.0625 14.25 -8 14 C-9 13 -9 13 -9.09765625 10.27734375 C-9.08605469 9.17519531 -9.07445312 8.07304688 -9.0625 6.9375 C-9.05347656 5.83277344 -9.04445313 4.72804688 -9.03515625 3.58984375 C-9.02355469 2.73519531 -9.01195312 1.88054688 -9 1 C-6.04335481 -0.4783226 -3.25770263 -0.06032783 0 0 Z " fill="#FBFBFB" transform="translate(577,530)"/>
  <path d="M0 0 C0 3.96130371 -1.34877125 4.82914401 -4 7.6875 C-4.7425 8.49574219 -5.485 9.30398438 -6.25 10.13671875 C-6.8275 10.75160156 -7.405 11.36648438 -8 12 C-8.66 11.67 -9.32 11.34 -10 11 C-8.52116808 9.35386588 -7.04192523 7.70810092 -5.5625 6.0625 C-4.73878906 5.14597656 -3.91507812 4.22945313 -3.06640625 3.28515625 C-1 1 -1 1 0 0 Z " fill="#0477CC" transform="translate(416,291)"/>
  <path d="M0 0 C1.3357457 3.77371512 0.72408671 6.85831347 0.0625 10.75 C-0.13214844 11.92046875 -0.32679688 13.0909375 -0.52734375 14.296875 C-0.68332031 15.18890625 -0.83929688 16.0809375 -1 17 C-1.33 17 -1.66 17 -2 17 C-2.05383848 14.54137599 -2.09359038 12.0839245 -2.125 9.625 C-2.14175781 8.92632812 -2.15851563 8.22765625 -2.17578125 7.5078125 C-2.19344267 5.67102514 -2.10303261 3.83398037 -2 2 C-1.34 1.34 -0.68 0.68 0 0 Z " fill="#037CD5" transform="translate(334,197)"/>
  <path d="M0 0 C0.66 0.33 1.32 0.66 2 1 C-0.64 3.64 -3.28 6.28 -6 9 C-6.33 8.01 -6.66 7.02 -7 6 C-4.69 4.02 -2.38 2.04 0 0 Z " fill="#0476CA" transform="translate(312,214)"/>
  <path d="M0 0 C0 3.93169105 -1.39419615 5.16427228 -4 8 C-4.66 8 -5.32 8 -6 8 C-4.55746343 4.63408134 -2.66735273 2.48952921 0 0 Z " fill="#0376CB" transform="translate(405,303)"/>
</svg>
